<svg preserveAspectRatio="none" width="100%" height="100%" overflow="visible" style="display: block;" viewBox="0 0 25.7045 27" fill="none" xmlns="http://www.w3.org/2000/svg">
<g id="amark" clip-path="url(#clip0_0_53)">
<path id="Vector" fill-rule="evenodd" clip-rule="evenodd" d="M4.24681 0.374835C3.32754 0.552493 3.87281 1.79247 6.60614 1.6982L15.7289 1.61844C16.1029 1.61844 16.809 1.67645 16.9977 1.87224L19.7485 3.46391C20.7971 4.18904 20.126 4.0839 19.399 4.10565L8.61593 4.46822C7.42057 4.5081 7.2388 4.65313 6.29855 3.97513C2.82421 1.46253 0.503325 0.374835 0 4.2398C0.0419438 8.10716 0.0850527 11.9843 0.129327 15.871C0.192242 16.7303 1.66726 16.8717 1.69173 15.784C1.69173 11.8755 1.69173 8.64136 1.69173 4.7329C1.69173 3.957 2.04126 3.8591 2.74033 4.45735L4.64178 6.30281C5.2919 6.88289 5.31638 7.57541 5.30938 8.55075V20.1747C5.26394 20.9868 5.50163 22.0672 4.52993 21.0557L2.50265 18.8368C1.29676 17.9594 1.21287 19.3045 1.45405 19.6997C2.76226 21.7746 4.21062 23.7507 5.78824 25.6132C7.00459 27.0308 6.77043 27.0634 8.44118 26.9329L23.4186 25.4101C24.572 25.2651 25.6242 24.1375 25.7045 21.9548V10.6355C25.5507 8.27155 23.2578 8.37668 23.3872 10.6355L23.471 20.965C23.4256 22.3936 23.2998 22.4153 21.5591 22.8069C20.2204 23.1005 13.6702 23.978 9.98264 23.764C8.64389 23.6879 8.21052 23.3507 8.21052 22.2268V9.17434C8.21052 7.47027 9.29052 6.90832 10.846 6.81766L24.0303 6.25205C26.1275 5.71183 24.4218 3.35151 23.4186 2.89105C22.342 2.41609 18.6265 0.679392 16.9838 0.139167C16.6821 0.0197615 16.3575 -0.0237284 16.0365 0.0122677L4.24681 0.374835Z" fill="#D7301F"/>
<path id="Vector_2" fill-rule="evenodd" clip-rule="evenodd" d="M10.4151 15.512L10.3906 13.4853L17.1541 13.072L13.9908 10.2802L16.8989 10.175L20.5201 13.5976L16.1369 18.2676L13.83 18.0428L17.0002 14.863L10.4151 15.512Z" fill="var(--fill-0, black)"/>
</g>
<defs>
<clipPath id="clip0_0_53">
<rect width="25.7045" height="27" fill="white"/>
</clipPath>
</defs>
</svg>
